<?xml version="1.0" standalone="no"?><!DOCTYPE svg PUBLIC "-//W3C//DTD SVG 1.1//EN" "http://www.w3.org/Graphics/SVG/1.1/DTD/svg11.dtd"><svg t="1697087730783" class="icon" viewBox="0 0 1024 1024" version="1.1" xmlns="http://www.w3.org/2000/svg" p-id="937" xmlns:xlink="http://www.w3.org/1999/xlink" width="200" height="200"><path d="M378.88 917.333333a32.768 32.768 0 0 1-20.650667-7.509333 34.474667 34.474667 0 0 1-12.202666-25.301333V138.538667a31.573333 31.573333 0 0 1 12.202666-25.301334c7.466667-6.570667 17.792-8.448 28.117334-6.570666l404.138666 85.333333a32.981333 32.981333 0 0 1 25.344 31.872v127.573333c0 17.792-15.018667 32.768-32.853333 32.768a33.237333 33.237333 0 0 1-32.810667-32.810666V250.154667L411.648 179.797333v663.466667l338.517333-69.418667V694.186667c0-17.792 15.018667-32.810667 32.853334-32.810667 17.792 0 32.810667 15.018667 32.810666 32.853333v105.941334c0 14.976-10.325333 28.16-25.344 31.872l-404.138666 84.394666c-1.877333 0.938667-4.693333 0.938667-7.509334 0.938667z" fill="#303133" p-id="938"></path><path d="M512 597.333333a42.709333 42.709333 0 1 0 85.418667 0A42.709333 42.709333 0 0 0 512 597.333333zM670.165333 597.333333a42.666667 42.666667 0 1 0 85.290667 0 42.666667 42.666667 0 0 0-85.290667 0zM826.410667 597.333333a42.666667 42.666667 0 1 0 85.333333 0 42.666667 42.666667 0 0 0-85.333333 0zM512 469.333333a42.709333 42.709333 0 1 0 85.418667 0A42.709333 42.709333 0 0 0 512 469.333333zM670.165333 471.082667a42.624 42.624 0 1 0 85.248 0 42.624 42.624 0 0 0-85.248 0zM826.410667 471.082667a42.666667 42.666667 0 1 0 85.333333 0 42.666667 42.666667 0 0 0-85.333333 0z" fill="#303133" p-id="939"></path><path d="M197.333333 347.306667a42.709333 42.709333 0 0 0 42.581334 42.666666 42.538667 42.538667 0 0 0 42.581333-42.666666 42.666667 42.666667 0 0 0-42.581333-42.666667 42.538667 42.538667 0 0 0-42.581334 42.666667zM93.44 469.333333a42.666667 42.666667 0 0 0 42.624 42.666667 42.538667 42.538667 0 0 0 42.581333-42.666667 42.666667 42.666667 0 0 0-42.581333-42.666666 42.538667 42.538667 0 0 0-42.624 42.666666zM197.333333 597.333333a42.752 42.752 0 0 0 42.581334 42.666667 42.581333 42.581333 0 0 0 39.338666-59.008 42.666667 42.666667 0 0 0-55.637333-23.04 42.581333 42.581333 0 0 0-26.282667 39.381333zM93.44 725.333333a42.666667 42.666667 0 0 0 42.624 42.666667 42.538667 42.538667 0 0 0 42.581333-42.666667 42.666667 42.666667 0 0 0-42.581333-42.666666 42.538667 42.538667 0 0 0-42.624 42.666666z" fill="#1E6DF5" p-id="940"></path></svg>