<?xml version="1.0" standalone="no"?><!DOCTYPE svg PUBLIC "-//W3C//DTD SVG 1.1//EN" "http://www.w3.org/Graphics/SVG/1.1/DTD/svg11.dtd"><svg t="1697087924819" class="icon" viewBox="0 0 1024 1024" version="1.1" xmlns="http://www.w3.org/2000/svg" p-id="27528" xmlns:xlink="http://www.w3.org/1999/xlink" width="200" height="200"><path d="M810.224 711.728v-0.944a132.512 132.512 0 0 0-132.528-132.512H213.824a132.544 132.544 0 0 0-132.528 132.528V909.6c0 18.304-1.728 33.136 16.576 33.136h712.352V711.728z m0 0" fill="#5893D4" p-id="27529"></path><path d="M677.696 578.288h-46a132.512 132.512 0 0 1 132.528 132.512v231.936h46V710.8a132.512 132.512 0 0 0-132.528-132.512z m0 0" fill="#4876C7" p-id="27530"></path><path d="M545.168 578.288a99.392 99.392 0 0 1-99.408 99.392 99.392 99.392 0 0 1-99.392-99.392V432h198.8v146.288z m0 0M644.56 213.808a33.12 33.12 0 0 1 33.136 33.12v66.288a33.12 33.12 0 0 1-33.136 33.136h-397.6a33.136 33.136 0 0 1-33.136-33.136v-66.288a33.12 33.12 0 0 1 33.136-33.12h397.6z m0 0" fill="#FEB19D" p-id="27531"></path><path d="M611.424 97.84A82.848 82.848 0 0 0 528.592 14.992H362.928a82.832 82.832 0 0 0-82.832 82.848v248.496C280.096 437.84 354.272 512 445.76 512c91.504 0 165.664-74.16 165.664-165.664V97.84z m0 0" fill="#FED9CA" p-id="27532"></path><path d="M346.352 578.288a99.392 99.392 0 0 0 198.8 0h66.272c0 91.488-74.176 165.664-165.664 165.664-91.488 0-165.664-74.176-165.664-165.664h66.256z m0 0" fill="#6FA9E8" p-id="27533"></path><path d="M942.736 859.904a149.088 149.088 0 0 1-149.088 149.088 149.088 149.088 0 1 1 149.088-149.088z m0 0" fill="#85EF47" p-id="27534"></path><path d="M864.48 826.784h-25.696a12 12 0 0 1-12-12v-25.696a11.984 11.984 0 0 0-12-12h-42.256a12 12 0 0 0-12 12v25.696a12 12 0 0 1-12 12h-25.696a11.984 11.984 0 0 0-12 12v42.272c0 6.624 5.36 12 12 12h25.696a12 12 0 0 1 12 11.984v25.696c0 6.64 5.376 12 12 12h42.256c6.64 0 12-5.36 12-12v-25.696a12 12 0 0 1 12-11.984h25.696a12 12 0 0 0 12-12v-42.272a12 12 0 0 0-12-12z m0 0" fill="#EEF2F5" p-id="27535"></path><path d="M528.592 15.008H362.928a82.832 82.832 0 0 0-82.832 82.848v49.696h49.696a33.136 33.136 0 0 0 33.136-33.12V97.84h165.664v16.576a33.12 33.12 0 0 0 33.136 33.12h49.696V97.84A82.832 82.832 0 0 0 528.592 15.008z m0 0" fill="#A3816A" p-id="27536"></path><path d="M528.592 15.008h-46a82.832 82.832 0 0 1 82.832 82.848v248.496c0 83.68-62.064 152.848-142.672 164.032a165.6 165.6 0 0 0 188.688-164.048V97.84A82.864 82.864 0 0 0 528.592 15.008z m0 0" fill="#FEC1A8" p-id="27537"></path><path d="M565.424 97.84v49.696h46V97.84A82.848 82.848 0 0 0 528.592 14.992h-46a82.864 82.864 0 0 1 82.832 82.848z m0 0" fill="#806553" p-id="27538"></path><path d="M793.648 710.816c-7.824 0-15.52 0.592-23.008 1.76 71.424 11.04 126.096 72.8 126.096 147.328s-54.672 136.272-126.096 147.328a149.088 149.088 0 1 0 23.008-296.416z m0 0" fill="#41DB41" p-id="27539"></path><path d="M824.688 698.784c-6.144-75.728-69.696-135.504-147.008-135.504H560.16v-77.216a180.48 180.48 0 0 0 65.632-124.72h18.768a48.192 48.192 0 0 0 48.128-48.128v-66.288a48.192 48.192 0 0 0-48.128-48.128h-18.128v-51.2-0.064-49.696A97.952 97.952 0 0 0 528.592 0H362.928a97.952 97.952 0 0 0-97.84 97.84v100.976h-18.128a48.192 48.192 0 0 0-48.144 48.128v66.288a48.192 48.192 0 0 0 48.144 48.128h18.752a180.448 180.448 0 0 0 65.648 124.72v77.2h-51.28l-0.064 0.016h-66.208c-81.344 0-147.52 66.176-147.52 147.536V909.6l-0.016 4.288c-0.096 12.864-0.208 26.176 9.088 35.536 5.488 5.536 13.056 8.336 22.496 8.336h194.816a15.008 15.008 0 0 0 0-30.016H228.8V843.36a14.992 14.992 0 1 0-30.016 0v84.384h-100.96c-0.416 0-0.768 0-1.056-0.032-0.608-3.008-0.56-9.264-0.528-13.6l0.016-4.512V710.8c0-64.8 52.72-117.52 117.52-117.52h51.904c7.648 92.624 85.472 165.664 180.032 165.664 94.576 0 172.4-73.024 180.032-165.664h51.904c59.728 0 109.152 44.784 116.544 102.528l-0.592-0.016c-90.496 0-164.112 73.616-164.112 164.112 0 24.192 5.312 47.136 14.736 67.824H352.672a15.008 15.008 0 0 0 0 30.016h309.296A164.032 164.032 0 0 0 793.648 1024c90.48 0 164.08-73.616 164.08-164.096 0-79.856-57.36-146.544-133.04-161.12zM644.56 228.816c10 0 18.128 8.128 18.128 18.128v66.288c0 10-8.128 18.144-18.128 18.144h-18.128v-102.544h18.128zM362.928 30h165.664a67.904 67.904 0 0 1 67.824 67.84v34.704h-34.688a18.144 18.144 0 0 1-18.128-18.128v-1.568h1.568a15.008 15.008 0 0 0 0-30.016H346.352a15.008 15.008 0 0 0 0 30.016h1.568v1.584c0 10-8.144 18.128-18.144 18.128h-34.688v-34.72a67.92 67.92 0 0 1 67.84-67.84z m-134.096 283.216v-66.288c0-10 8.144-18.128 18.144-18.128h18.128v102.528h-18.144a18.144 18.144 0 0 1-18.128-18.112z m66.272 33.12V162.544h34.688a48.208 48.208 0 0 0 48.144-48.144v-1.552H513.6v1.552a48.208 48.208 0 0 0 48.128 48.144h34.688v183.792c0 83.072-67.584 150.656-150.672 150.656-83.056 0.016-150.64-67.568-150.64-150.656z m150.656 180.672c30.464 0 59.2-7.584 84.4-20.96v72.256c-0.016 46.528-37.872 84.368-84.4 84.368s-84.384-37.856-84.384-84.384v-72.24c25.2 13.376 53.92 20.96 84.384 20.96z m0 201.936c-78 0-142.368-59.6-149.92-135.664h36.512c7.36 56.016 55.408 99.392 113.408 99.392s106.048-43.376 113.408-99.392h36.512c-7.552 76.064-71.904 135.664-149.92 135.664z m347.888 265.056c-73.952 0-134.112-60.144-134.112-134.096 0-73.936 60.16-134.096 134.112-134.096 73.936 0 134.096 60.16 134.096 134.096 0 73.952-60.16 134.096-134.096 134.096z m0 0" fill="#0C0A0B" p-id="27540"></path><path d="M876.48 811.776h-34.704v-34.704a14.992 14.992 0 0 0-15.008-15.008h-66.256a15.008 15.008 0 0 0-15.008 15.008v34.704h-34.688a14.992 14.992 0 0 0-15.008 15.008v66.272c0 8.272 6.704 14.992 15.008 14.992h34.688v34.704c0 8.304 6.72 15.008 15.008 15.008h66.256a14.992 14.992 0 0 0 15.008-15.008v-34.704h34.704c8.288 0 15.008-6.72 15.008-14.992v-66.272a15.024 15.024 0 0 0-15.008-15.008z m-15.008 66.272h-34.704a15.008 15.008 0 0 0-15.008 15.008v34.688h-36.256v-34.688a14.992 14.992 0 0 0-15.008-15.008h-34.688v-36.272h34.688c8.288 0 15.008-6.72 15.008-15.008v-34.704h36.256v34.704c0 8.288 6.72 15.008 15.008 15.008h34.704v36.272z m0 0" fill="#0C0A0B" p-id="27541"></path></svg>