<?xml version="1.0" standalone="no"?><!DOCTYPE svg PUBLIC "-//W3C//DTD SVG 1.1//EN" "http://www.w3.org/Graphics/SVG/1.1/DTD/svg11.dtd"><svg t="1697087500299" class="icon" viewBox="0 0 1024 1024" version="1.1" xmlns="http://www.w3.org/2000/svg" p-id="43500" xmlns:xlink="http://www.w3.org/1999/xlink" width="200" height="200"><path d="M512 149.333333v300.8c0 8.533333 8.533333 12.8 17.066667 8.533334l78.933333-49.066667c6.4-4.266667 14.933333-4.266667 23.466667 0l78.933333 49.066667c6.4 4.266667 17.066667 0 17.066667-8.533334V149.333333c0-12.8-8.533333-21.333333-21.333334-21.333333h-170.666666c-12.8 0-23.466667 8.533333-23.466667 21.333333z" fill="#1296db" p-id="43501"></path><path d="M810.666667 128h-42.666667c-12.8 0-21.333333 8.533333-21.333333 21.333333v42.666667c0 12.8 8.533333 21.333333 21.333333 21.333333 23.466667 0 42.666667 19.2 42.666667 42.666667v512c0 23.466667-19.2 42.666667-42.666667 42.666667H256c-23.466667 0-42.666667-19.2-42.666667-42.666667V256c0-23.466667 19.2-42.666667 42.666667-42.666667h213.333333c12.8 0 21.333333-8.533333 21.333334-21.333333V149.333333c0-12.8-8.533333-21.333333-21.333334-21.333333H213.333333c-46.933333 0-85.333333 38.4-85.333333 85.333333v597.333334c0 46.933333 38.4 85.333333 85.333333 85.333333h597.333334c46.933333 0 85.333333-38.4 85.333333-85.333333V213.333333c0-46.933333-38.4-85.333333-85.333333-85.333333z" fill="#1296db" p-id="43502"></path><path d="M428.8 384h-128c-10.666667 0-21.333333-8.533333-21.333333-21.333333v-42.666667c0-10.666667 8.533333-21.333333 21.333333-21.333333h128c10.666667 0 21.333333 8.533333 21.333333 21.333333v42.666667c0 12.8-10.666667 21.333333-21.333333 21.333333zM471.466667 554.666667H298.666667c-10.666667 0-21.333333-8.533333-21.333334-21.333334v-42.666666c0-10.666667 8.533333-21.333333 21.333334-21.333334h172.8c10.666667 0 21.333333 8.533333 21.333333 21.333334v42.666666c-2.133333 12.8-10.666667 21.333333-21.333333 21.333334zM704 725.333333H298.666667c-10.666667 0-21.333333-8.533333-21.333334-21.333333v-42.666667c0-10.666667 8.533333-21.333333 21.333334-21.333333h405.333333c10.666667 0 21.333333 8.533333 21.333333 21.333333v42.666667c0 12.8-8.533333 21.333333-21.333333 21.333333z" fill="#1296db" p-id="43503"></path></svg>