<?xml version="1.0" standalone="no"?><!DOCTYPE svg PUBLIC "-//W3C//DTD SVG 1.1//EN" "http://www.w3.org/Graphics/SVG/1.1/DTD/svg11.dtd"><svg t="1697087309684" class="icon" viewBox="0 0 1024 1024" version="1.1" xmlns="http://www.w3.org/2000/svg" p-id="19763" xmlns:xlink="http://www.w3.org/1999/xlink" width="200" height="200"><path d="M887.459869 1024H136.540338A111.178326 111.178326 0 0 1 28.467552 910.95835V538.293571a111.178326 111.178326 0 0 1 108.072786-113.869794h10.351799a31.055398 31.055398 0 0 1 0 62.110796h-10.351799A49.274565 49.274565 0 0 0 90.578349 538.293571v372.664779a49.274565 49.274565 0 0 0 45.961989 51.758997h750.919531a49.274565 49.274565 0 0 0 45.961989-51.758997V538.293571a49.274565 49.274565 0 0 0-45.961989-51.758998 31.055398 31.055398 0 0 1 0-62.110796 111.178326 111.178326 0 0 1 108.072786 113.869794v372.664779a111.178326 111.178326 0 0 1-108.072786 113.04165z" fill="#333333" p-id="19764"></path><path d="M812.305805 652.163364h-62.110797V111.178326a46.169025 46.169025 0 0 0-41.407197-49.067529H314.591288a46.169025 46.169025 0 0 0-41.407197 49.067529V652.163364h-62.110797V111.178326a107.451678 107.451678 0 0 1 103.517994-111.178326h394.817631a107.451678 107.451678 0 0 1 103.517994 111.178326zM838.185304 714.274161h-662.515164a31.055398 31.055398 0 0 1 0-62.110797h662.515164a31.055398 31.055398 0 0 1 0 62.110797z" fill="#333333" p-id="19765"></path><path d="M548.33492 315.729883h-165.628791a31.055398 31.055398 0 0 1 0-62.110797h165.628791a31.055398 31.055398 0 0 1 0 62.110797zM631.149315 460.655075h-248.443186a31.055398 31.055398 0 0 1 0-62.110797h248.443186a31.055398 31.055398 0 0 1 0 62.110797z" fill="#3399FF" p-id="19766"></path></svg>